<?xml version="1.0" encoding="UTF-8"?>
<svg id="Capa_2" data-name="Capa 2" xmlns="http://www.w3.org/2000/svg" viewBox="0 0 131.78 76.09">
  <defs>
    <style>
      .cls-1 {
        fill: #e6ff00;
      }
    </style>
  </defs>
  <g id="Capa_1-2" data-name="Capa 1">
    <path class="cls-1" d="M120.8,31.7l-10.98-6.34-10.98-6.34-10.98-6.34L65.89,0l-5.49,3.17-5.49,3.17-5.49,3.17-5.49,3.17-5.49,3.17-5.49,3.17-5.49,3.17-5.49,3.17-5.49,3.17-5.49,3.17-5.49,3.17-5.49,3.17,10.98,6.34,5.49-3.17,5.49-3.17,5.49-3.17,5.49-3.17,5.49-3.17,10.98,6.34,2.32,1.34c-.17,.58-.25,1.18-.25,1.79,0,5.28,6.45,9.55,14.41,9.55s14.41-4.28,14.41-9.55-6.45-9.55-14.41-9.55c-1.65,0-3.24,.19-4.72,.52l-.77-.45-10.98-6.34,5.49-3.17,5.49-3.17,5.49-3.17,10.98,6.34,10.98,6.34,10.98,6.34,10.98,6.34-5.49,3.17-5.49,3.17-5.49,3.17-5.49,3.17-5.49,3.17-5.49,3.17-5.49,3.17-5.49,3.17-10.98-6.34-10.98-6.34-10.98,6.34,10.98,6.34,10.98,6.34,10.98,6.34,5.49-3.17,5.49-3.17,5.49-3.17,5.49-3.17,5.49-3.17,5.49-3.17,5.49-3.17,5.49-3.17,5.49-3.17,5.49-3.17,5.49-3.17,5.49-3.17-10.98-6.34Z"/>
  </g>
</svg>