<?xml version="1.0" encoding="UTF-8"?>
<svg id="Capa_2" data-name="Capa 2" xmlns="http://www.w3.org/2000/svg" viewBox="0 0 583.22 93.92">
  <defs>
    <style>
      .cls-1 {
        fill: #e6ff00;
      }

      .cls-2 {
        fill: #fdfdfc;
      }
    </style>
  </defs>
  <g id="Capa_1-2" data-name="Capa 1">
    <g>
      <path class="cls-2" d="M165.26,35.36h-8.65v-13.57h8.65v-5.04c0-11.28,9.2-16.75,20.36-16.75,1.86,0,4.16,.11,9.85,.99V13.79l-6.79-.11c-6.68,0-8.65,1.75-8.65,6.57v1.53h15.44v13.57h-15.44v41.49h-14.78V35.36Z"/>
      <path class="cls-2" d="M198.86,59.77c-.55-16.2,14.67-18.28,31.96-18.39h7.01v-.55c0-6.13-2.85-7.44-10.62-7.44-5.15,0-10.62,.55-10.73,6.57h-15c.11-15.33,11.49-20.14,25.72-20.14,17.73,0,25.07,7.44,25.07,21.35v35.69h-14.34v-6.24c-3.83,3.5-9.63,6.46-17.51,6.46-12.92,0-21.24-5.58-21.57-17.3Zm38.97-3.61v-4.38l-7.12,.33c-13.36,.44-17.41,2.63-17.41,7.22,0,3.72,2.96,6.02,9.96,6.02,8.65,0,14.56-3.5,14.56-9.2Z"/>
      <path class="cls-2" d="M260.93,20.36h14.67v5.91c4.6-5.25,14.78-6.13,22.66-4.49l-2.08,13.79c-9.41-2.41-20.58-.55-20.58,9.2v32.07h-14.67V20.36Z"/>
      <path class="cls-2" d="M304.83,20.36h14.67v6.13c2.85-4.49,9.41-6.68,15.87-6.68,17.62,0,27.91,11.71,27.91,28.9s-11.17,29.34-28.9,29.34c-5.58,0-10.84-1.42-14.89-4.93v20.8h-14.67V20.36Zm43.35,28.35c0-10.62-5.69-15.11-13.79-15.11-9.74,0-15,5.36-15,13.03v4.05c0,8.54,4.38,13.46,14.23,13.46,9.3,0,14.56-4.71,14.56-15.43Z"/>
      <path class="cls-2" d="M368.99,48.93c0-18.17,12.26-29.12,30.54-29.12s30.1,10.95,30.1,29.01-11.93,29.23-30.43,29.23-30.21-11.17-30.21-29.12Zm46.09-.11c0-9.3-5.8-15.22-15.65-15.22s-15.76,5.91-15.76,15.33,5.69,15.22,15.65,15.22,15.76-5.91,15.76-15.33Z"/>
      <path class="cls-2" d="M437.3,.22h14.78V15.11h-14.78V.22Zm.11,21.57h14.67v55.06h-14.67V21.78Z"/>
      <path class="cls-2" d="M459.74,20.36h14.67v6.35c2.96-4.05,10.29-6.68,16.42-6.9,14.78-.88,22.66,7.77,22.66,21.35v35.69h-14.56V44.66c0-7.01-1.75-10.95-9.41-10.95-6.02,0-15.11,2.85-15.11,10.18v32.95h-14.67V20.36Z"/>
      <path class="cls-2" d="M526.73,58.24v-22.66h-8.65v-13.46h8.65V3.28h14.67V22.11h16.42v13.46h-16.42v23.43c0,7.55,9.2,5.04,15.33,3.83l3.61,11.93c-7.33,2.41-10.73,3.07-15,3.07-13.9,0-18.17-8.32-18.61-19.59Z"/>
      <path class="cls-1" d="M583.22,72.25c0,9.3-14.34,9.3-14.34,0s14.34-9.41,14.34,0Z"/>
    </g>
    <path class="cls-1" d="M120.8,33.25l-10.98-6.34-10.98-6.34-10.98-6.34L65.89,1.55l-5.49,3.17-5.49,3.17-5.49,3.17-5.49,3.17-5.49,3.17-5.49,3.17-5.49,3.17-5.49,3.17-5.49,3.17-5.49,3.17-5.49,3.17-5.49,3.17,10.98,6.34,5.49-3.17,5.49-3.17,5.49-3.17,5.49-3.17,5.49-3.17,10.98,6.34,2.32,1.34c-.17,.58-.25,1.18-.25,1.79,0,5.28,6.45,9.55,14.41,9.55s14.41-4.28,14.41-9.55-6.45-9.55-14.41-9.55c-1.65,0-3.24,.19-4.72,.52l-.77-.45-10.98-6.34,5.49-3.17,5.49-3.17,5.49-3.17,10.98,6.34,10.98,6.34,10.98,6.34,10.98,6.34-5.49,3.17-5.49,3.17-5.49,3.17-5.49,3.17-5.49,3.17-5.49,3.17-5.49,3.17-5.49,3.17-10.98-6.34-10.98-6.34-10.98,6.34,10.98,6.34,10.98,6.34,10.98,6.34,5.49-3.17,5.49-3.17,5.49-3.17,5.49-3.17,5.49-3.17,5.49-3.17,5.49-3.17,5.49-3.17,5.49-3.17,5.49-3.17,5.49-3.17,5.49-3.17-10.98-6.34Z"/>
  </g>
</svg>